<svg xmlns:rdf="http://www.w3.org/1999/02/22-rdf-syntax-ns#" xmlns="http://www.w3.org/2000/svg" xmlns:cc="http://creativecommons.org/ns#" xmlns:dc="http://purl.org/dc/elements/1.1/" id="svg2" height="54" width="340" version="1.1">
  <defs id="defs3170"/>
  <metadata id="metadata3173">
    <rdf:RDF>
      <cc:Work rdf:about="">
        <dc:format>
          image/svg+xml
        </dc:format>
        <dc:type rdf:resource="http://purl.org/dc/dcmitype/StillImage"/>
      </cc:Work>
    </rdf:RDF>
  </metadata>
  <g id="layer1" transform="translate(0,-998.36218)">
    <path id="path104" d="m38.75 1003.7-32.6 0c-0.7 0-1.26 0.09-1.7 0.26-0.44 0.18-0.78 0.47-1.03 0.88-0.25 0.41-0.44 0.94-0.56 1.62l-1.05 5.93c-0.18 1.04-0.1 1.78 0.24 2.21 0.34 0.43 1.02 0.64 2.06 0.63h9.81l-5.73 32.47c-0.21 1.01-0.14 1.72 0.21 2.15 0.35 0.42 1.05 0.63 2.1 0.61h7.44c0.69 0 1.26-0.09 1.7-0.26 0.44-0.18 0.78-0.47 1.03-0.88 0.24-0.41 0.43-0.94 0.56-1.62l5.73-32.47h9.75c1.03 0.01 1.81-0.2 2.3-0.63 0.51-0.43 0.83-1.16 0.99-2.21l1.05-5.93c0.21-1.01 0.13-1.72-0.22-2.15-0.35-0.42-1.04-0.63-2.09-0.62zm86.59 0-18.18 0c-0.69 0-1.26 0.09-1.7 0.26-0.44 0.18-0.78 0.47-1.03 0.88-0.24 0.4-0.44 0.94-0.56 1.62l-7.25 41.23c-0.18 1.01-0.13 1.73 0.22 2.15 0.35 0.42 1.04 0.61 2.09 0.61h7.44c0.7 0 1.26-0.09 1.7-0.26 0.44-0.18 0.78-0.47 1.03-0.88 0.25-0.41 0.44-0.94 0.56-1.62l1.98-11.26h8.04c3.45 0 6.52-0.54 9.23-1.65 2.7-1.1 4.95-2.79 6.72-5.05 1.77-2.26 3-5.11 3.61-8.59 0.46-2.62 0.44-5.01 0.02-7.15-0.42-2.14-1.24-3.98-2.45-5.51-1.21-1.54-2.79-2.71-4.72-3.55-1.92-0.83-4.17-1.24-6.75-1.25zm-5.2 21.21-6.45 0 1.71-9.68 6.46 0c1.05 0 1.92 0.21 2.58 0.61 0.67 0.41 1.13 0.98 1.38 1.7 0.25 0.73 0.3 1.58 0.12 2.56-0.17 0.97-0.52 1.82-1.04 2.54-0.52 0.72-1.18 1.28-1.99 1.67-0.81 0.4-1.72 0.59-2.77 0.6" fill-rule="nonzero" fill="#FFF"/>
    <g id="g106" fill="#FFF" transform="matrix(1.441689,0,0,-1.441689,-153.08493,1494.3058)">
      <g id="g108" fill="#FFF">
        <g id="g114" fill="#FFF">
          <path id="path122" d="m169.65 334.36c4.16-7.14 3.19-16.45-2.93-22.57-7.28-7.28-19.09-7.28-26.37 0-7.28 7.28-7.28 19.09 0 26.37 6.12 6.12 15.43 7.1 22.57 2.93-0.98-0.62-1.97-1.42-2.99-2.46-2.15 0.04-3.08-0.71-3.91-1.93-3.83 0.81-7.99-0.28-10.96-3.25-1.73-1.73-2.82-3.86-3.27-6.1 0.33-5.79 7.3-5.08 15.5 3.87-0.13 0.28-0.26 0.58-0.38 0.87-1.2-1.26-2.13-2.15-2.79-2.65 0.3 1.2 0.98 2.77 2.03 4.71 1.31 2.01 2.22 3.45 4.25 2.81 2.78 3.41 6.33 4.75 9.91 4.79-0.04-3.58-1.38-7.14-4.79-9.91 0.64-2.03-0.8-2.94-2.81-4.25-1.94-1.05-3.52-1.72-4.71-2.03 0.51 0.66 1.39 1.59 2.65 2.79-0.29 0.12-0.59 0.25-0.87 0.38-8.95-8.19-9.65-15.17-3.86-15.5 2.23 0.45 4.37 1.54 6.1 3.27 2.98 2.98 4.06 7.13 3.25 10.96 1.22 0.84 1.97 1.77 1.93 3.92 1.03 1.02 1.84 2.01 2.46 2.99zm-1.96 4.77c-0.4 0.4-1.04 0.4-1.44 0-0.4-0.4-0.4-1.04 0-1.44 0.4-0.4 1.04-0.4 1.44 0 0.4 0.4 0.4 1.04 0 1.44zm-2.08-2.08c-0.62 0.62-1.64 0.62-2.26 0-0.62-0.62-0.62-1.64 0-2.26s1.64-0.62 2.26 0c0.62 0.62 0.62 1.64 0 2.26" fill-rule="evenodd" fill="#FFF"/>
        </g>
      </g>
    </g>
    <path id="path124" d="m177.15 1003.8-27.52 0c-0.69 0-1.26 0.09-1.7 0.26-0.44 0.18-0.78 0.47-1.02 0.88-0.25 0.41-0.44 0.94-0.57 1.62l-7.22 41.12c-0.21 1.01-0.13 1.72 0.22 2.15 0.35 0.42 1.04 0.62 2.08 0.61h28.04c1.04 0.02 1.81-0.2 2.31-0.61 0.5-0.43 0.83-1.14 0.97-2.15l1.05-5.98c0.21-1.03 0.14-1.75-0.21-2.17-0.34-0.41-1.02-0.6-2.02-0.59h-17.93l1.12-6.31h13.86c0.7 0 1.26-0.09 1.7-0.26 0.44-0.19 0.79-0.48 1.03-0.9 0.25-0.42 0.44-0.96 0.56-1.66l1.05-5.91c0.19-1.01 0.1-1.72-0.24-2.15-0.33-0.42-1.02-0.62-2.06-0.61h-13.86l1.05-5.85h17.34c1.01 0.02 1.76-0.2 2.25-0.62 0.5-0.43 0.85-1.16 1.03-2.2l1.05-5.91c0.17-1.01 0.09-1.72-0.27-2.14-0.35-0.42-1.05-0.62-2.09-0.61zm38.62 0-27.52 0c-0.69 0-1.26 0.09-1.7 0.26-0.44 0.18-0.78 0.47-1.02 0.88-0.25 0.41-0.44 0.94-0.57 1.62l-7.23 41.12c-0.21 1.01-0.13 1.72 0.22 2.15 0.35 0.42 1.04 0.62 2.08 0.61h7.42c0.7 0 1.27-0.09 1.7-0.26 0.44-0.17 0.79-0.47 1.03-0.88 0.25-0.4 0.44-0.94 0.56-1.62l2.36-13.27h13.79c1.04 0.02 1.81-0.2 2.31-0.62 0.5-0.43 0.83-1.16 0.97-2.2l1.05-5.91c0.19-1.01 0.1-1.72-0.24-2.15-0.33-0.42-1.02-0.62-2.06-0.61h-13.86l1.38-7.62h17.34c1.01 0.02 1.76-0.2 2.25-0.62 0.5-0.43 0.85-1.16 1.03-2.2l1.05-5.91c0.17-1.01 0.09-1.72-0.27-2.14-0.35-0.42-1.05-0.62-2.09-0.61zm38.03 0-27.52 0c-0.69 0-1.26 0.09-1.7 0.26-0.44 0.18-0.78 0.47-1.02 0.88-0.25 0.41-0.44 0.94-0.57 1.62l-7.22 41.12c-0.21 1.01-0.13 1.72 0.22 2.15 0.35 0.42 1.04 0.62 2.08 0.61h28.04c1.04 0.02 1.81-0.2 2.31-0.61 0.5-0.43 0.83-1.14 0.97-2.15l1.05-5.98c0.21-1.03 0.14-1.75-0.21-2.17-0.34-0.41-1.02-0.6-2.02-0.59h-17.93l1.12-6.31h13.86c0.7 0 1.26-0.09 1.7-0.26 0.44-0.19 0.79-0.48 1.03-0.9 0.25-0.42 0.44-0.96 0.56-1.66l1.05-5.91c0.19-1.01 0.1-1.72-0.24-2.15-0.33-0.42-1.02-0.62-2.06-0.61h-13.86l1.05-5.85h17.34c1.01 0.02 1.76-0.2 2.25-0.62 0.5-0.43 0.85-1.16 1.03-2.2l1.05-5.91c0.17-1.01 0.09-1.72-0.27-2.14-0.35-0.42-1.05-0.62-2.09-0.61zm39.67 43.41-5.78-16.42c-0.37-1.11-0.82-2.04-1.33-2.79-0.51-0.75-1.18-1.42-2.03-2l15.57-19.31c0.66-0.87 0.88-1.57 0.68-2.09-0.21-0.52-0.8-0.79-1.8-0.8h-7.62c-0.82 0-1.51 0.02-2.06 0.09-0.55 0.07-1.02 0.19-1.4 0.36-0.38 0.18-0.75 0.43-1.08 0.74-0.33 0.32-0.7 0.73-1.11 1.24l-12.02 14.91h-1.44l2.56-14.58c0.21-1.01 0.14-1.72-0.21-2.14-0.35-0.42-1.05-0.62-2.09-0.61h-7.42c-0.69 0-1.26 0.09-1.7 0.26-0.44 0.18-0.78 0.47-1.02 0.88-0.25 0.41-0.44 0.94-0.57 1.62l-7.23 41.12c-0.21 1.01-0.13 1.72 0.22 2.15 0.35 0.42 1.04 0.62 2.08 0.61h7.42c0.7 0 1.27-0.09 1.71-0.26 0.43-0.17 0.78-0.47 1.02-0.88 0.25-0.4 0.44-0.94 0.56-1.62l2.63-15.04h1.12c0.82 0 1.49 0.13 1.99 0.38 0.49 0.25 0.9 0.62 1.19 1.12 0.3 0.48 0.55 1.08 0.75 1.78l3.68 11.76c0.25 0.76 0.57 1.34 0.96 1.74 0.38 0.39 0.92 0.67 1.61 0.81 0.69 0.14 1.61 0.22 2.75 0.21h7.09c0.72-0.02 1.29-0.15 1.7-0.44 0.41-0.28 0.66-0.68 0.76-1.16 0.1-0.48 0.04-1.02-0.15-1.62zm44.27-43.41-32.51 0c-0.7 0-1.26 0.09-1.7 0.26-0.44 0.18-0.78 0.47-1.03 0.88-0.25 0.41-0.44 0.94-0.56 1.62l-1.05 5.91c-0.17 1.04-0.1 1.77 0.24 2.2 0.34 0.43 1.02 0.63 2.06 0.62h9.79l-5.71 32.38c-0.21 1.01-0.14 1.72 0.21 2.15 0.35 0.42 1.05 0.62 2.09 0.61h7.42c0.69 0 1.26-0.09 1.7-0.26 0.44-0.17 0.78-0.47 1.03-0.88 0.24-0.4 0.43-0.94 0.56-1.62l5.71-32.38h9.72c1.03 0.02 1.81-0.2 2.3-0.62 0.5-0.43 0.83-1.16 0.99-2.2l1.05-5.91c0.21-1.01 0.13-1.72-0.22-2.14-0.35-0.42-1.04-0.62-2.08-0.61" fill-rule="nonzero" fill="#FFF"/>
  </g>
</svg>
