<svg xmlns:rdf="http://www.w3.org/1999/02/22-rdf-syntax-ns#" xmlns="http://www.w3.org/2000/svg" viewBox="0 0 280 47.000001" height="47" width="280" version="1.1" xmlns:cc="http://creativecommons.org/ns#" xmlns:dc="http://purl.org/dc/elements/1.1/">
 <g transform="matrix(1.383 0 0 1.383 -129.8 -23.59)">
  <g fill="#333">
   <g transform="matrix(.6849 0 0 -.6849 105.7 24.25)">
    <path d="m0 0-1.948-10.07h8.053c2.339 0 4.016 0.345 5.034 1.039 1.017 0.692 1.699 1.861 2.046 3.507 0.087 0.346 0.13 0.66 0.13 0.942v0.747c0 1.429-0.455 2.424-1.364 2.987-0.92 0.566-2.282 0.848-4.101 0.848h-7.859zm-3.507-18.19-2.273-11.69h8.443c2.728 0 4.698 0.367 5.911 1.105 1.211 0.735 1.991 2.078 2.338 4.026 0.13 0.78 0.195 1.494 0.195 2.143 0 1.69-0.531 2.847-1.591 3.476-1.062 0.627-2.631 0.941-4.709 0.941h-8.314zm-13.84-19.88 9.029 46.25h17.67c2.121 0 4.048-0.196 5.781-0.585 1.731-0.39 3.215-0.996 4.449-1.819s2.197-1.894 2.89-3.215c0.692-1.321 1.039-2.913 1.039-4.774 0-0.477-0.032-0.974-0.097-1.493-0.065-0.521-0.141-1.083-0.228-1.69-0.389-2.122-1.212-3.919-2.468-5.39-1.256-1.473-2.75-2.577-4.481-3.313 1.731-0.736 3.009-1.873 3.832-3.41 0.822-1.537 1.234-3.345 1.234-5.423 0-0.867-0.065-1.754-0.195-2.663-0.649-4.504-2.544-7.708-5.683-9.613-3.14-1.905-7.264-2.858-12.37-2.858h-20.4z" fill="#333"/>
   </g>
   <g transform="matrix(.6849 0 0 -.6849 140.6 27.05)">
    <path d="m0 0h10.33l-4.095-21.11c-0.477-2.556-1.159-4.72-2.046-6.496-0.888-1.776-2.036-3.214-3.442-4.319-1.408-1.104-3.107-1.894-5.099-2.371-1.992-0.476-4.33-0.714-7.014-0.714-4.591 0-8.076 0.888-10.46 2.663-2.382 1.775-3.573 4.503-3.573 8.184 0 0.605 0.033 1.266 0.098 1.98 0.065 0.715 0.162 1.375 0.292 1.982l3.96 20.2h10.33l-4.027-20.65c-0.087-0.433-0.152-0.856-0.195-1.266-0.043-0.412-0.064-0.726-0.064-0.942 0-1.386 0.367-2.361 1.104-2.923 0.735-0.564 1.818-0.844 3.247-0.844 1.082 0 1.991 0.086 2.728 0.26 0.736 0.172 1.353 0.486 1.851 0.941 0.497 0.455 0.909 1.071 1.234 1.852 0.325 0.779 0.595 1.753 0.812 2.922l4.02 20.65z" fill="#333"/>
   </g>
   <g transform="matrix(.6849 0 0 -.6849 153.8 17.27)">
    <path d="m0 0h10.33l-9.418-48.26h-10.33l9.418 48.26z" fill="#333"/>
   </g>
   <g transform="matrix(.6849 0 0 -.6849 173.9 38.09)">
    <path d="m0 0 11.95-17.86h-11.82l-9.483 14.87-2.858-14.87h-9.937l9.418 48.26h9.872l-5.131-26.56 12.86 12.28h12.21l-17.08-16.12z" fill="#333"/>
   </g>
  </g>
  <g transform="matrix(.6849 0 0 -.6849 194.2 34.39)">
   <path d="m0 0c-0.52-2.598-0.779-4.784-0.779-6.56 0-2.857 0.734-4.871 2.207-6.04 1.472-1.17 3.92-1.754 7.34-1.754h1.98c0.932 0 1.723 0.022 2.371 0.065l1.625 8.379h-6.691l3.443 8.833h15.72l-3.703-19.22c-0.434-2.296-1.159-3.92-2.176-4.872-1.018-0.953-2.479-1.537-4.385-1.753-1.644-0.218-3.344-0.335-5.098-0.357-1.753-0.022-3.324-0.033-4.708-0.033-3.465 0-6.389 0.378-8.77 1.136s-4.309 1.829-5.779 3.216c-1.473 1.385-2.545 3.063-3.216 5.033-0.672 1.97-1.006 4.19-1.006 6.658 0 2.38 0.302 5.043 0.909 7.989 0.865 4.503 2.057 8.205 3.572 11.11 1.516 2.901 3.377 5.185 5.586 6.853 2.207 1.666 4.784 2.825 7.729 3.474 2.943 0.65 6.301 0.975 10.07 0.975 2.164 0 4.264-0.012 6.299-0.032 2.035-0.023 4.223-0.076 6.561-0.163l-3.444-8.963c-0.908 0.043-1.785 0.075-2.629 0.098-0.845 0.021-1.689 0.041-2.533 0.064-0.846 0.021-1.732 0.033-2.664 0.033h-3.084c-2.3-0.02-4.25-0.23-5.852-0.64-1.603-0.41-2.978-1.15-4.125-2.21-1.148-1.06-2.101-2.508-2.857-4.348-0.758-1.84-1.396-4.168-1.916-6.982" fill="#37ab9c"/>
  </g>
  <g transform="matrix(.6849 0 0 -.6849 265.9 32.61)">
   <path d="m0 0-2.403-12.47c-0.173-0.737-0.26-1.472-0.26-2.208 0-1.04 0.293-1.819 0.877-2.339 0.585-0.519 1.613-0.779 3.085-0.779h1.462 2.078c0.715 0 1.364 0.011 1.948 0.032 0.585 0.022 0.985 0.034 1.202 0.034l-3.118-8.12h-1.136c-0.585 0-1.234-0.009-1.949-0.032-0.714-0.021-1.439-0.033-2.176-0.033h-1.754c-3.854 0-6.657 0.845-8.411 2.533-1.753 1.69-2.63 4.049-2.63 7.08 0 0.606 0.042 1.255 0.13 1.949 0.086 0.692 0.195 1.407 0.325 2.143l5.521 28.45 10.59 1.235-1.819-9.354h10.39l-3.126-8.11h-8.834z" fill="#37ab9c"/>
  </g>
  <g transform="matrix(.6849 0 0 -.6849 286.8 31.37)">
   <path d="m0 0c-2.209 0-3.876-0.552-5.002-1.656-1.126-1.105-2.035-3.064-2.727-5.878h5.65c1.082 0 1.981 0.043 2.695 0.13 0.715 0.086 1.31 0.249 1.786 0.487 0.477 0.237 0.845 0.541 1.105 0.909 0.26 0.367 0.475 0.833 0.649 1.397 0.173 0.519 0.26 1.082 0.26 1.688 0 0.909-0.324 1.624-0.974 2.144-0.65 0.519-1.797 0.779-3.442 0.779m-9.094-14.68v-1.039c0.043-1.602 0.531-2.771 1.462-3.508 0.931-0.736 2.522-1.103 4.774-1.103 2.38 0 4.459 0.02 6.235 0.064 1.775 0.043 3.638 0.13 5.586 0.26l-2.926-7.46c-1.343-0.13-2.955-0.216-4.839-0.26-1.884-0.042-3.887-0.065-6.008-0.065-2.685 0-4.925 0.303-6.722 0.909-1.797 0.607-3.227 1.45-4.287 2.533-1.062 1.083-1.819 2.372-2.273 3.865-0.455 1.494-0.682 3.106-0.682 4.839 0 1.819 0.195 3.702 0.584 5.651 0.65 3.593 1.602 6.516 2.858 8.768 1.256 2.251 2.717 4.016 4.385 5.294 1.666 1.276 3.496 2.143 5.488 2.597 1.991 0.455 4.069 0.683 6.235 0.683 4.416 0 7.697-0.823 9.84-2.469 2.144-1.645 3.215-4.005 3.215-7.079-0.05-0.561-0.1-1.135-0.17-1.72-0.06-0.584-0.16-1.179-0.29-1.786-0.74-3.291-2.35-5.604-4.839-6.944-2.491-1.35-6.096-2.02-10.81-2.02h-6.821z" fill="#37ab9c"/>
  </g>
  <g transform="matrix(.6849 0 0 -.6849 234.1 26.15)">
   <path d="m0 0c9.856-6.753 16.75-15.41 19.57-35.29h10.58c-1.11 19.82-12.95 36.95-30.15 46.33-17.2-9.381-29.04-26.51-30.15-46.33h10.58s18.73-0.707 31.11 18.79c0 0-12.44-6.625-19.75-3.875-6.919 2.602-3.576 8.599-3.196 9.236 3.138 4.658 6.973 8.089 11.41 11.13" fill="#37ab9c"/>
  </g>
 </g>
</svg>
